<svg xmlns="http://www.w3.org/2000/svg" width="1280" height="640" viewBox="0 0 1280 640" role="img" aria-label="Omnipod social preview">
  <defs>
    <linearGradient id="bg" x1="0" y1="0" x2="1" y2="1">
      <stop offset="0%" stop-color="#0b1220"/>
      <stop offset="100%" stop-color="#12304f"/>
    </linearGradient>
  </defs>
  <rect width="1280" height="640" fill="url(#bg)"/>
  <rect x="92" y="86" width="1096" height="22" rx="11" fill="#40a3ff"/>
  <rect x="92" y="524" width="1096" height="22" rx="11" fill="#00e0c4"/>
  <rect x="92" y="154" width="34" height="332" rx="10" fill="#40a3ff"/>
  <rect x="130" y="154" width="18" height="332" rx="9" fill="#00e0c4"/>
  <text x="180" y="290" fill="#f5f8ff" font-size="128" font-weight="800" font-family="Inter, Segoe UI, Arial, sans-serif" letter-spacing="4">OMNIPOD</text>
  <text x="184" y="390" fill="#f5f8ff" font-size="44" font-weight="700" font-family="Inter, Segoe UI, Arial, sans-serif">Hermes Agent</text>
  <text x="184" y="450" fill="#aab9d2" font-size="40" font-weight="500" font-family="Inter, Segoe UI, Arial, sans-serif">in Docker</text>
  <g>
    <rect x="858" y="160" width="280" height="88" rx="16" fill="#40a3ff"/>
    <rect x="870" y="172" width="256" height="64" rx="10" fill="#0b1220"/>
    <text x="945" y="213" fill="#40a3ff" font-size="30" font-weight="700" font-family="Inter, Segoe UI, Arial, sans-serif">CLI</text>
  </g>
  <g>
    <rect x="902" y="272" width="236" height="88" rx="16" fill="#00e0c4"/>
    <rect x="914" y="284" width="212" height="64" rx="10" fill="#0b1220"/>
    <text x="943" y="325" fill="#00e0c4" font-size="30" font-weight="700" font-family="Inter, Segoe UI, Arial, sans-serif">LOCAL API</text>
  </g>
  <g>
    <rect x="814" y="384" width="324" height="88" rx="16" fill="#f5f8ff"/>
    <rect x="826" y="396" width="300" height="64" rx="10" fill="#12304f"/>
    <text x="848" y="437" fill="#f5f8ff" font-size="28" font-weight="700" font-family="Inter, Segoe UI, Arial, sans-serif">PERSISTENT CONFIG</text>
  </g>
</svg>
